<svg width="34" height="34" viewBox="0 0 34 34" fill="none" xmlns="http://www.w3.org/2000/svg">
<path d="M3.15352 8.7V15H2.67352V8.52C2.67352 8.136 2.58952 7.84 2.42152 7.632C2.26152 7.424 1.98552 7.32 1.59352 7.32H1.47352V7.08H2.25352C2.62152 7.08 2.93352 7.14 3.18952 7.26C3.44552 7.38 3.67352 7.56 3.87352 7.8L8.07352 13.02V7.08H8.55352V15.12H8.31352L3.15352 8.7ZM10.8404 8.52C10.8404 8.112 10.7844 7.812 10.6724 7.62C10.5604 7.42 10.3364 7.32 10.0004 7.32H9.76036V7.08H14.8724C15.5524 7.08 15.8924 7.4 15.8924 8.04V8.94H15.6524C15.6524 8.02 15.1524 7.56 14.1524 7.56H11.9204V10.68H15.1604V11.16H11.9204V14.52H14.0204C14.5724 14.52 15.0044 14.42 15.3164 14.22C15.6284 14.02 15.8764 13.68 16.0604 13.2L16.3004 13.26L15.8804 14.4C15.7364 14.8 15.4364 15 14.9804 15H10.8404V8.52ZM20.1385 11.1L18.4585 8.64C18.2665 8.36 18.0985 8.14 17.9545 7.98C17.8105 7.812 17.6225 7.664 17.3905 7.536C17.1585 7.408 16.8745 7.336 16.5385 7.32V7.08H17.9785C18.3305 7.08 18.6265 7.196 18.8665 7.428C19.1065 7.652 19.3705 7.976 19.6585 8.4L20.8585 10.2L23.2585 7.08H23.8585L21.1585 10.62L23.0785 13.44C23.3265 13.808 23.5905 14.116 23.8705 14.364C24.1585 14.604 24.4745 14.736 24.8185 14.76V15H23.5585C23.2145 15 22.9105 14.88 22.6465 14.64C22.3825 14.392 22.1265 14.072 21.8785 13.68L20.4385 11.52L17.7385 15H17.1385L20.1385 11.1ZM27.7224 7.56H26.6424C25.6424 7.56 25.1424 8.02 25.1424 8.94H24.9024V8.04C24.9024 7.4 25.2424 7.08 25.9224 7.08H31.5024V7.56H28.8024V15H27.7224V7.56ZM2.19577 21.484C2.03577 21.02 1.86377 20.704 1.67977 20.536C1.50377 20.36 1.23577 20.256 0.875766 20.224V19.984C0.915766 19.984 0.975766 19.98 1.05577 19.972C1.12777 19.964 1.20377 19.96 1.28377 19.96C1.72377 19.96 2.11977 20.06 2.47177 20.26C2.83177 20.46 3.11977 20.868 3.33577 21.484L4.94377 26.116L6.22777 22.312L5.93977 21.484C5.77977 21.02 5.60777 20.704 5.42377 20.536C5.24777 20.36 4.97977 20.256 4.61977 20.224V19.984C4.65977 19.984 4.71577 19.98 4.78777 19.972C4.86777 19.964 4.94777 19.96 5.02777 19.96C5.46777 19.96 5.86377 20.06 6.21577 20.26C6.57577 20.46 6.86377 20.868 7.07977 21.484L8.68777 26.116L10.7398 20.08H11.2558L8.50777 28.12H8.26777L6.49177 23.068L4.76377 28.12H4.52377L2.19577 21.484ZM13.6734 28C13.3774 28 13.1534 27.964 13.0014 27.892C12.8574 27.812 12.7534 27.672 12.6894 27.472C12.6254 27.272 12.5934 26.968 12.5934 26.56V20.08H13.6734V26.56C13.6734 26.968 13.7294 27.272 13.8414 27.472C13.9534 27.664 14.1774 27.76 14.5134 27.76H14.7534V28H13.6734ZM16.7473 21.7V28H16.2673V21.52C16.2673 21.136 16.1833 20.84 16.0153 20.632C15.8553 20.424 15.5793 20.32 15.1873 20.32H15.0673V20.08H15.8473C16.2153 20.08 16.5273 20.14 16.7833 20.26C17.0393 20.38 17.2673 20.56 17.4673 20.8L21.6673 26.02V20.08H22.1473V28.12H21.9073L16.7473 21.7ZM24.4341 21.52C24.4341 21.112 24.3781 20.812 24.2661 20.62C24.1541 20.42 23.9301 20.32 23.5941 20.32H23.3541V20.08H26.4981C28.0501 20.08 29.2221 20.424 30.0141 21.112C30.8141 21.8 31.2141 22.76 31.2141 23.992C31.2141 24.784 31.0461 25.484 30.7101 26.092C30.3741 26.692 29.8741 27.16 29.2101 27.496C28.5541 27.832 27.7541 28 26.8101 28H24.4341V21.52ZM26.7741 27.58C27.3661 27.58 27.8981 27.436 28.3701 27.148C28.8501 26.852 29.2261 26.44 29.4981 25.912C29.7701 25.376 29.9061 24.752 29.9061 24.04C29.9061 23.344 29.7701 22.728 29.4981 22.192C29.2341 21.656 28.8621 21.24 28.3821 20.944C27.9021 20.648 27.3581 20.5 26.7501 20.5C26.3661 20.5 25.9661 20.564 25.5501 20.692V27.424C25.9981 27.528 26.4061 27.58 26.7741 27.58Z" fill="white"/>
</svg>
